<svg width="86" height="150" viewBox="0 0 86 150" fill="none" xmlns="http://www.w3.org/2000/svg">
<path d="M46.5547 143C46.5547 145.209 44.7638 147 42.5547 147C40.3455 147 38.5547 145.209 38.5547 143L38.5547 75.4452C38.5547 73.2361 40.3455 71.4453 42.5547 71.4453C44.7638 71.4453 46.5547 73.2361 46.5547 75.4452L46.5547 143Z" fill="#CEC4C4"/>
<path d="M42.9994 75.1071C62.9115 75.1071 79.0534 58.9653 79.0534 39.0535C79.0534 19.1417 62.9115 3 42.9994 3C23.0873 3 6.94531 19.1417 6.94531 39.0535C6.94531 58.9653 23.0873 75.1071 42.9994 75.1071Z" fill="#D7A99A"/>
<path d="M82 33.6172H4C3.44772 33.6172 3 34.0649 3 34.6172V42.4981C3 43.0504 3.44771 43.4981 4 43.4981H82C82.5523 43.4981 83 43.0504 83 42.4981V34.6172C83 34.0649 82.5523 33.6172 82 33.6172Z" fill="#E6C7BD"/>
</svg>
